<svg fill="#ffffff" id="Capa_1" enable-background="new 0 0 512 512" height="512" viewBox="0 0 512 512" width="512" xmlns="http://www.w3.org/2000/svg"><path d="m399.072 399.319-12.376 12.376-18.187-18.187c-2.985 3.92-6.26 7.688-9.839 11.267-3.58 3.58-7.351 6.857-11.273 9.843l18.187 18.188-12.376 12.376 57.321 57.32c12.664 12.664 33.197 12.664 45.862 0 12.664-12.665 12.664-33.198 0-45.862z"/><path d="m202.23 248.334c43.131-43.131 113.311-43.132 156.441 0 19.943 19.942 30.657 45.667 32.158 71.827 53.693-7.579 95.133-53.822 95.133-109.573 0-61.027-49.649-110.676-110.675-110.676-5.8 0-11.562.449-17.246 1.341-6.114-25.741-19.902-49.159-39.794-67.174-24.27-21.976-55.68-34.079-88.445-34.079-71.606 0-130.059 57.391-131.769 128.592-41.858 11.548-71.995 50.067-71.995 94.563 0 54.097 44.011 98.109 98.109 98.109h45.86c1.26-26.539 12-52.707 32.223-72.93z"/><path d="m337.56 269.445c-15.746-15.745-36.428-23.618-57.111-23.618-20.682 0-41.364 7.873-57.11 23.618-31.49 31.491-31.49 82.729 0 114.22 31.493 31.49 82.73 31.489 114.22 0 31.491-31.491 31.491-82.729.001-114.22z"/></svg>