<svg fill="#ffffff" height="512pt" viewBox="0 0 512 512" width="512pt" xmlns="http://www.w3.org/2000/svg"><path d="m511.921875 0-103.207031 40.835938-9.074219-32.203126-158.175781 94.484376-.105469.0625c-103.726563 62.242187-168.601563 103.09375-193.203125 127.699218-64.207031 64.207032-64.207031 168.679688 0 232.886719 31.101562 31.105469 72.457031 48.234375 116.445312 48.234375 43.984376 0 85.339844-17.128906 116.441407-48.234375 22.453125-22.449219 59.78125-78.097656 128.84375-192.074219l93.21875-159.460937-32.019531-9.023438zm-265.183594 429.460938c-21.941406 21.9375-51.109375 34.023437-82.136719 34.023437-31.03125 0-60.199218-12.085937-82.140624-34.023437-21.9375-21.941407-34.023438-51.109376-34.023438-82.140626 0-31.027343 12.085938-60.195312 34.023438-82.136718 21.941406-21.941406 51.109374-34.023438 82.140624-34.023438 31.027344 0 60.195313 12.082032 82.136719 34.023438 21.941407 21.941406 34.023438 51.109375 34.023438 82.136718 0 31.027344-12.082031 60.199219-34.023438 82.140626zm0 0"/><path d="m164.601562 326.304688c-5.617187 0-10.894531 2.1875-14.863281 6.15625s-6.15625 9.246093-6.15625 14.863281c0 5.613281 2.1875 10.890625 6.15625 14.859375s9.25 6.15625 14.863281 6.15625c5.613282 0 10.890626-2.1875 14.859376-6.15625 3.972656-3.96875 6.15625-9.246094 6.15625-14.859375 0-5.617188-2.183594-10.894531-6.15625-14.863281-3.96875-3.972657-9.246094-6.15625-14.859376-6.15625zm0 0"/><path d="m164.601562 261.238281c-22.996093 0-44.613281 8.953125-60.871093 25.214844-16.261719 16.257813-25.214844 37.875-25.214844 60.867187 0 22.996094 8.957031 44.613282 25.214844 60.871094 16.257812 16.257813 37.875 25.214844 60.871093 25.214844 22.992188 0 44.609376-8.957031 60.871094-25.214844 16.257813-16.257812 25.210938-37.875 25.210938-60.871094 0-22.992187-8.953125-44.609374-25.210938-60.867187-16.261718-16.261719-37.878906-25.214844-60.871094-25.214844zm36.128907 122.214844c-9.648438 9.648437-22.480469 14.964844-36.128907 14.964844-13.648437 0-26.480468-5.316407-36.128906-14.964844-9.652344-9.652344-14.964844-22.484375-14.964844-36.128906 0-13.648438 5.3125-26.480469 14.964844-36.132813 9.648438-9.648437 22.480469-14.964844 36.128906-14.964844 13.648438 0 26.480469 5.316407 36.128907 14.964844 9.652343 9.652344 14.964843 22.484375 14.964843 36.132813 0 13.644531-5.316406 26.476562-14.964843 36.128906zm0 0"/></svg>