<svg fill="#ffffff" height="512pt" viewBox="-16 0 512 512" width="512pt" xmlns="http://www.w3.org/2000/svg"><path d="m210 363.570312v-62.570312h-62.570312c-6.191407-17.460938-22.871094-30-42.429688-30s-36.238281 12.539062-42.429688 30h-62.570312v211h210v-63.570312c-17.824219-6.320313-30-23.253907-30-42.429688 0-19.144531 12.152344-36.101562 30-42.429688zm0 0"/><path d="m417.429688 271c-6.320313 17.824219-23.253907 30-42.429688 30-19.144531 0-36.101562-12.152344-42.429688-30h-62.570312v62.570312c-17.460938 6.191407-30 22.871094-30 42.429688s12.539062 36.238281 30 42.429688v62.570312h210v-210zm0 0"/><path d="m210 93.570312v-62.570312h-210v210h62.570312c6.320313-17.824219 23.253907-30 42.429688-30 19.144531 0 36.101562 12.152344 42.429688 30h62.570312v-62.570312c17.460938-6.191407 30-22.871094 30-42.429688s-12.539062-36.238281-30-42.429688zm0 0"/><path d="m270 0v63.570312c17.824219 6.320313 30 23.253907 30 42.429688 0 19.144531-12.152344 36.101562-30 42.429688v62.570312h62.570312c6.191407 17.460938 22.871094 30 42.429688 30s36.238281-12.539062 42.429688-30h62.570312v-211zm0 0"/></svg>